<!--
  The AI Hero brand mark, copied verbatim (path data identical) from
  ai-hero's `apps/ai-hero/public/favicon.svg` / `<LogoMark>`. Copied rather
  than imported so this package has no cross-repo build coupling.

  The source asset flips fill between black and white with a
  `prefers-color-scheme` media query. An overlay is composited over footage
  with no page behind it, so the mark is flipped per theme. This is the dark mark, for the light Definition Card.
-->
<svg xmlns="http://www.w3.org/2000/svg" width="280" height="280" fill="none" viewBox="0 0 280 280">
  <g clip-path="url(#a)">
    <path fill="#1C1917" fill-rule="evenodd" d="m284.66-4.72 1.107-.997-18.581-16.725L152 81.242V-1.999h-25v80.54L14.814-22.441-3.715-5.764l-.002-.003-.027.029-.023.021.002.002-16.678 18.529L80.54 125H.115v25h83.127L-20.444 265.186l16.726 18.581L126.594 139-3.266-5.265 141 124.595 274.725 4.223 153.405 139l130.312 144.767 16.726-18.581L196.758 150h83.127v-25h-80.426L300.443 12.814 284.66-4.72Zm1.107 290.438L141 155.406-3.767 285.718l18.58 16.725L127 201.459V280h25v-81.241l115.186 103.684 18.581-16.725Z" clip-rule="evenodd"/>
  </g>
  <defs>
    <clipPath id="a">
      <path fill="#fff" d="M0 0h280v280H0z"/>
    </clipPath>
  </defs>
</svg>
